<svg xmlns="http://www.w3.org/2000/svg" width="67" height="78"><rect x="0" y="0" width="100%" height="100%" fill="rgb(104,151,56)"></rect><rect x="-7.166666666666667" y="-7.166666666666667" width="14.333333333333334" height="14.333333333333334" stroke="#000" stroke-opacity="0.02" fill="#ddd" fill-opacity="0.05466666666666667" stroke-width="1"></rect><rect x="60.65939490848725" y="-7.166666666666667" width="14.333333333333334" height="14.333333333333334" stroke="#000" stroke-opacity="0.02" fill="#ddd" fill-opacity="0.05466666666666667" stroke-width="1"></rect><rect x="-7.166666666666667" y="71.15212315030782" width="14.333333333333334" height="14.333333333333334" stroke="#000" stroke-opacity="0.02" fill="#ddd" fill-opacity="0.05466666666666667" stroke-width="1"></rect><rect x="60.65939490848725" y="71.15212315030782" width="14.333333333333334" height="14.333333333333334" stroke="#000" stroke-opacity="0.02" fill="#ddd" fill-opacity="0.05466666666666667" stroke-width="1"></rect><rect x="26.746364120910286" y="12.413030787576954" width="14.333333333333334" height="14.333333333333334" stroke="#000" stroke-opacity="0.02" fill="#ddd" fill-opacity="0.14133333333333334" stroke-width="1"></rect><rect x="-7.166666666666667" y="31.992728241820576" width="14.333333333333334" height="14.333333333333334" stroke="#000" stroke-opacity="0.02" fill="#222" fill-opacity="0.028666666666666667" stroke-width="1"></rect><rect x="60.65939490848725" y="31.992728241820576" width="14.333333333333334" height="14.333333333333334" stroke="#000" stroke-opacity="0.02" fill="#222" fill-opacity="0.028666666666666667" stroke-width="1"></rect><rect x="26.746364120910286" y="51.572425696064194" width="14.333333333333334" height="14.333333333333334" stroke="#000" stroke-opacity="0.02" fill="#ddd" fill-opacity="0.10666666666666667" stroke-width="1"></rect><polyline points="0,0,12.413030787576954,7.166666666666667,0,14.333333333333334,0,0" stroke="#000" stroke-opacity="0.02" fill="#222" fill-opacity="0.11533333333333334" stroke-width="1" transform="translate(7.166666666666667,-7.166666666666667) rotate(0,7.166666666666667,6.206515393788477)"></polyline><polyline points="0,0,12.413030787576954,7.166666666666667,0,14.333333333333334,0,0" stroke="#000" stroke-opacity="0.02" fill="#222" fill-opacity="0.11533333333333334" stroke-width="1" transform="translate(7.166666666666667,85.48545648364116) rotate(0,7.166666666666667,6.206515393788477) scale(1,-1)"></polyline><polyline points="0,0,12.413030787576954,7.166666666666667,0,14.333333333333334,0,0" stroke="#000" stroke-opacity="0.02" fill="#222" fill-opacity="0.06333333333333334" stroke-width="1" transform="translate(60.65939490848725,-7.166666666666667) rotate(0,7.166666666666667,6.206515393788477) scale(-1,1)"></polyline><polyline points="0,0,12.413030787576954,7.166666666666667,0,14.333333333333334,0,0" stroke="#000" stroke-opacity="0.02" fill="#222" fill-opacity="0.06333333333333334" stroke-width="1" transform="translate(60.65939490848725,85.48545648364116) rotate(0,7.166666666666667,6.206515393788477) scale(-1,-1)"></polyline><polyline points="0,0,12.413030787576954,7.166666666666667,0,14.333333333333334,0,0" stroke="#000" stroke-opacity="0.02" fill="#222" fill-opacity="0.06333333333333334" stroke-width="1" transform="translate(41.07969745424362,12.413030787576954)"></polyline><polyline points="0,0,12.413030787576954,7.166666666666667,0,14.333333333333334,0,0" stroke="#000" stroke-opacity="0.02" fill="#222" fill-opacity="0.15" stroke-width="1" transform="translate(26.74636412091029,12.413030787576954) scale(-1,1)"></polyline><polyline points="0,0,12.413030787576954,7.166666666666667,0,14.333333333333334,0,0" stroke="#000" stroke-opacity="0.02" fill="#222" fill-opacity="0.13266666666666665" stroke-width="1" transform="translate(41.07969745424362,65.90575902939753) scale(1,-1)"></polyline><polyline points="0,0,12.413030787576954,7.166666666666667,0,14.333333333333334,0,0" stroke="#000" stroke-opacity="0.02" fill="#222" fill-opacity="0.098" stroke-width="1" transform="translate(26.74636412091029,65.90575902939753) scale(-1,-1)"></polyline><polyline points="0,0,12.413030787576954,7.166666666666667,0,14.333333333333334,0,0" stroke="#000" stroke-opacity="0.02" fill="#ddd" fill-opacity="0.07200000000000001" stroke-width="1" transform="translate(7.166666666666667,31.992728241820576)"></polyline><polyline points="0,0,12.413030787576954,7.166666666666667,0,14.333333333333334,0,0" stroke="#000" stroke-opacity="0.02" fill="#222" fill-opacity="0.028666666666666667" stroke-width="1" transform="translate(60.65939490848725,31.992728241820576) scale(-1,1)"></polyline><rect x="0" y="0" width="14.333333333333334" height="14.333333333333334" stroke="#000" stroke-opacity="0.02" fill="#222" fill-opacity="0.046" stroke-width="1" transform="translate(7.166666666666667,7.166666666666667) rotate(-30,0,0)"></rect><rect x="0" y="0" width="14.333333333333334" height="14.333333333333334" stroke="#000" stroke-opacity="0.02" fill="#ddd" fill-opacity="0.03733333333333333" stroke-width="1" transform="scale(-1,1) translate(-60.65939490848725,7.166666666666667) rotate(-30,0,0)"></rect><rect x="0" y="0" width="14.333333333333334" height="14.333333333333334" stroke="#000" stroke-opacity="0.02" fill="#ddd" fill-opacity="0.12400000000000001" stroke-width="1" transform="translate(7.166666666666667,17.659394908487243) rotate(30,0,14.333333333333334)"></rect><rect x="0" y="0" width="14.333333333333334" height="14.333333333333334" stroke="#000" stroke-opacity="0.02" fill="#ddd" fill-opacity="0.02" stroke-width="1" transform="scale(-1,1) translate(-60.65939490848725,17.659394908487243) rotate(30,0,14.333333333333334)"></rect><rect x="0" y="0" width="14.333333333333334" height="14.333333333333334" stroke="#000" stroke-opacity="0.02" fill="#ddd" fill-opacity="0.08933333333333333" stroke-width="1" transform="scale(1,-1) translate(7.166666666666667,-60.65939490848724) rotate(30,0,14.333333333333334)"></rect><rect x="0" y="0" width="14.333333333333334" height="14.333333333333334" stroke="#000" stroke-opacity="0.02" fill="#ddd" fill-opacity="0.05466666666666667" stroke-width="1" transform="scale(-1,-1) translate(-60.65939490848725,-60.65939490848724) rotate(30,0,14.333333333333334)"></rect><rect x="0" y="0" width="14.333333333333334" height="14.333333333333334" stroke="#000" stroke-opacity="0.02" fill="#ddd" fill-opacity="0.14133333333333334" stroke-width="1" transform="scale(1,-1) translate(7.166666666666667,-71.15212315030782) rotate(-30,0,0)"></rect><rect x="0" y="0" width="14.333333333333334" height="14.333333333333334" stroke="#000" stroke-opacity="0.02" fill="#222" fill-opacity="0.08066666666666666" stroke-width="1" transform="scale(-1,-1) translate(-60.65939490848725,-71.15212315030782) rotate(-30,0,0)"></rect></svg>