<svg xmlns="http://www.w3.org/2000/svg" width="100" height="100"><rect x="0" y="0" width="100%" height="100%" fill="rgb(153,81,54)"></rect><polyline points="5.500000000000001,0,11.166666666666668,0,16.666666666666668,5.500000000000001,16.666666666666668,11.166666666666668,11.166666666666668,16.666666666666668,5.500000000000001,16.666666666666668,0,11.166666666666668,0,5.500000000000001,5.500000000000001,0" fill="#ddd" fill-opacity="0.03733333333333333" stroke="#000" stroke-opacity="0.02" transform="translate(0,0)"></polyline><polyline points="5.500000000000001,0,11.166666666666668,0,16.666666666666668,5.500000000000001,16.666666666666668,11.166666666666668,11.166666666666668,16.666666666666668,5.500000000000001,16.666666666666668,0,11.166666666666668,0,5.500000000000001,5.500000000000001,0" fill="#222" fill-opacity="0.098" stroke="#000" stroke-opacity="0.02" transform="translate(16.666666666666668,0)"></polyline><polyline points="5.500000000000001,0,11.166666666666668,0,16.666666666666668,5.500000000000001,16.666666666666668,11.166666666666668,11.166666666666668,16.666666666666668,5.500000000000001,16.666666666666668,0,11.166666666666668,0,5.500000000000001,5.500000000000001,0" fill="#222" fill-opacity="0.08066666666666666" stroke="#000" stroke-opacity="0.02" transform="translate(33.333333333333336,0)"></polyline><polyline points="5.500000000000001,0,11.166666666666668,0,16.666666666666668,5.500000000000001,16.666666666666668,11.166666666666668,11.166666666666668,16.666666666666668,5.500000000000001,16.666666666666668,0,11.166666666666668,0,5.500000000000001,5.500000000000001,0" fill="#222" fill-opacity="0.11533333333333334" stroke="#000" stroke-opacity="0.02" transform="translate(50,0)"></polyline><polyline points="5.500000000000001,0,11.166666666666668,0,16.666666666666668,5.500000000000001,16.666666666666668,11.166666666666668,11.166666666666668,16.666666666666668,5.500000000000001,16.666666666666668,0,11.166666666666668,0,5.500000000000001,5.500000000000001,0" fill="#ddd" fill-opacity="0.03733333333333333" stroke="#000" stroke-opacity="0.02" transform="translate(66.66666666666667,0)"></polyline><polyline points="5.500000000000001,0,11.166666666666668,0,16.666666666666668,5.500000000000001,16.666666666666668,11.166666666666668,11.166666666666668,16.666666666666668,5.500000000000001,16.666666666666668,0,11.166666666666668,0,5.500000000000001,5.500000000000001,0" fill="#ddd" fill-opacity="0.12400000000000001" stroke="#000" stroke-opacity="0.02" transform="translate(83.33333333333334,0)"></polyline><polyline points="5.500000000000001,0,11.166666666666668,0,16.666666666666668,5.500000000000001,16.666666666666668,11.166666666666668,11.166666666666668,16.666666666666668,5.500000000000001,16.666666666666668,0,11.166666666666668,0,5.500000000000001,5.500000000000001,0" fill="#ddd" fill-opacity="0.03733333333333333" stroke="#000" stroke-opacity="0.02" transform="translate(0,16.666666666666668)"></polyline><polyline points="5.500000000000001,0,11.166666666666668,0,16.666666666666668,5.500000000000001,16.666666666666668,11.166666666666668,11.166666666666668,16.666666666666668,5.500000000000001,16.666666666666668,0,11.166666666666668,0,5.500000000000001,5.500000000000001,0" fill="#222" fill-opacity="0.06333333333333334" stroke="#000" stroke-opacity="0.02" transform="translate(16.666666666666668,16.666666666666668)"></polyline><polyline points="5.500000000000001,0,11.166666666666668,0,16.666666666666668,5.500000000000001,16.666666666666668,11.166666666666668,11.166666666666668,16.666666666666668,5.500000000000001,16.666666666666668,0,11.166666666666668,0,5.500000000000001,5.500000000000001,0" fill="#222" fill-opacity="0.13266666666666665" stroke="#000" stroke-opacity="0.02" transform="translate(33.333333333333336,16.666666666666668)"></polyline><polyline points="5.500000000000001,0,11.166666666666668,0,16.666666666666668,5.500000000000001,16.666666666666668,11.166666666666668,11.166666666666668,16.666666666666668,5.500000000000001,16.666666666666668,0,11.166666666666668,0,5.500000000000001,5.500000000000001,0" fill="#ddd" fill-opacity="0.02" stroke="#000" stroke-opacity="0.02" transform="translate(50,16.666666666666668)"></polyline><polyline points="5.500000000000001,0,11.166666666666668,0,16.666666666666668,5.500000000000001,16.666666666666668,11.166666666666668,11.166666666666668,16.666666666666668,5.500000000000001,16.666666666666668,0,11.166666666666668,0,5.500000000000001,5.500000000000001,0" fill="#222" fill-opacity="0.15" stroke="#000" stroke-opacity="0.02" transform="translate(66.66666666666667,16.666666666666668)"></polyline><polyline points="5.500000000000001,0,11.166666666666668,0,16.666666666666668,5.500000000000001,16.666666666666668,11.166666666666668,11.166666666666668,16.666666666666668,5.500000000000001,16.666666666666668,0,11.166666666666668,0,5.500000000000001,5.500000000000001,0" fill="#222" fill-opacity="0.08066666666666666" stroke="#000" stroke-opacity="0.02" transform="translate(83.33333333333334,16.666666666666668)"></polyline><polyline points="5.500000000000001,0,11.166666666666668,0,16.666666666666668,5.500000000000001,16.666666666666668,11.166666666666668,11.166666666666668,16.666666666666668,5.500000000000001,16.666666666666668,0,11.166666666666668,0,5.500000000000001,5.500000000000001,0" fill="#222" fill-opacity="0.028666666666666667" stroke="#000" stroke-opacity="0.02" transform="translate(0,33.333333333333336)"></polyline><polyline points="5.500000000000001,0,11.166666666666668,0,16.666666666666668,5.500000000000001,16.666666666666668,11.166666666666668,11.166666666666668,16.666666666666668,5.500000000000001,16.666666666666668,0,11.166666666666668,0,5.500000000000001,5.500000000000001,0" fill="#222" fill-opacity="0.13266666666666665" stroke="#000" stroke-opacity="0.02" transform="translate(16.666666666666668,33.333333333333336)"></polyline><polyline points="5.500000000000001,0,11.166666666666668,0,16.666666666666668,5.500000000000001,16.666666666666668,11.166666666666668,11.166666666666668,16.666666666666668,5.500000000000001,16.666666666666668,0,11.166666666666668,0,5.500000000000001,5.500000000000001,0" fill="#222" fill-opacity="0.15" stroke="#000" stroke-opacity="0.02" transform="translate(33.333333333333336,33.333333333333336)"></polyline><polyline points="5.500000000000001,0,11.166666666666668,0,16.666666666666668,5.500000000000001,16.666666666666668,11.166666666666668,11.166666666666668,16.666666666666668,5.500000000000001,16.666666666666668,0,11.166666666666668,0,5.500000000000001,5.500000000000001,0" fill="#ddd" fill-opacity="0.05466666666666667" stroke="#000" stroke-opacity="0.02" transform="translate(50,33.333333333333336)"></polyline><polyline points="5.500000000000001,0,11.166666666666668,0,16.666666666666668,5.500000000000001,16.666666666666668,11.166666666666668,11.166666666666668,16.666666666666668,5.500000000000001,16.666666666666668,0,11.166666666666668,0,5.500000000000001,5.500000000000001,0" fill="#ddd" fill-opacity="0.14133333333333334" stroke="#000" stroke-opacity="0.02" transform="translate(66.66666666666667,33.333333333333336)"></polyline><polyline points="5.500000000000001,0,11.166666666666668,0,16.666666666666668,5.500000000000001,16.666666666666668,11.166666666666668,11.166666666666668,16.666666666666668,5.500000000000001,16.666666666666668,0,11.166666666666668,0,5.500000000000001,5.500000000000001,0" fill="#ddd" fill-opacity="0.07200000000000001" stroke="#000" stroke-opacity="0.02" transform="translate(83.33333333333334,33.333333333333336)"></polyline><polyline points="5.500000000000001,0,11.166666666666668,0,16.666666666666668,5.500000000000001,16.666666666666668,11.166666666666668,11.166666666666668,16.666666666666668,5.500000000000001,16.666666666666668,0,11.166666666666668,0,5.500000000000001,5.500000000000001,0" fill="#ddd" fill-opacity="0.05466666666666667" stroke="#000" stroke-opacity="0.02" transform="translate(0,50)"></polyline><polyline points="5.500000000000001,0,11.166666666666668,0,16.666666666666668,5.500000000000001,16.666666666666668,11.166666666666668,11.166666666666668,16.666666666666668,5.500000000000001,16.666666666666668,0,11.166666666666668,0,5.500000000000001,5.500000000000001,0" fill="#ddd" fill-opacity="0.14133333333333334" stroke="#000" stroke-opacity="0.02" transform="translate(16.666666666666668,50)"></polyline><polyline points="5.500000000000001,0,11.166666666666668,0,16.666666666666668,5.500000000000001,16.666666666666668,11.166666666666668,11.166666666666668,16.666666666666668,5.500000000000001,16.666666666666668,0,11.166666666666668,0,5.500000000000001,5.500000000000001,0" fill="#ddd" fill-opacity="0.02" stroke="#000" stroke-opacity="0.02" transform="translate(33.333333333333336,50)"></polyline><polyline points="5.500000000000001,0,11.166666666666668,0,16.666666666666668,5.500000000000001,16.666666666666668,11.166666666666668,11.166666666666668,16.666666666666668,5.500000000000001,16.666666666666668,0,11.166666666666668,0,5.500000000000001,5.500000000000001,0" fill="#222" fill-opacity="0.08066666666666666" stroke="#000" stroke-opacity="0.02" transform="translate(50,50)"></polyline><polyline points="5.500000000000001,0,11.166666666666668,0,16.666666666666668,5.500000000000001,16.666666666666668,11.166666666666668,11.166666666666668,16.666666666666668,5.500000000000001,16.666666666666668,0,11.166666666666668,0,5.500000000000001,5.500000000000001,0" fill="#ddd" fill-opacity="0.02" stroke="#000" stroke-opacity="0.02" transform="translate(66.66666666666667,50)"></polyline><polyline points="5.500000000000001,0,11.166666666666668,0,16.666666666666668,5.500000000000001,16.666666666666668,11.166666666666668,11.166666666666668,16.666666666666668,5.500000000000001,16.666666666666668,0,11.166666666666668,0,5.500000000000001,5.500000000000001,0" fill="#222" fill-opacity="0.13266666666666665" stroke="#000" stroke-opacity="0.02" transform="translate(83.33333333333334,50)"></polyline><polyline points="5.500000000000001,0,11.166666666666668,0,16.666666666666668,5.500000000000001,16.666666666666668,11.166666666666668,11.166666666666668,16.666666666666668,5.500000000000001,16.666666666666668,0,11.166666666666668,0,5.500000000000001,5.500000000000001,0" fill="#ddd" fill-opacity="0.14133333333333334" stroke="#000" stroke-opacity="0.02" transform="translate(0,66.66666666666667)"></polyline><polyline points="5.500000000000001,0,11.166666666666668,0,16.666666666666668,5.500000000000001,16.666666666666668,11.166666666666668,11.166666666666668,16.666666666666668,5.500000000000001,16.666666666666668,0,11.166666666666668,0,5.500000000000001,5.500000000000001,0" fill="#222" fill-opacity="0.098" stroke="#000" stroke-opacity="0.02" transform="translate(16.666666666666668,66.66666666666667)"></polyline><polyline points="5.500000000000001,0,11.166666666666668,0,16.666666666666668,5.500000000000001,16.666666666666668,11.166666666666668,11.166666666666668,16.666666666666668,5.500000000000001,16.666666666666668,0,11.166666666666668,0,5.500000000000001,5.500000000000001,0" fill="#ddd" fill-opacity="0.14133333333333334" stroke="#000" stroke-opacity="0.02" transform="translate(33.333333333333336,66.66666666666667)"></polyline><polyline points="5.500000000000001,0,11.166666666666668,0,16.666666666666668,5.500000000000001,16.666666666666668,11.166666666666668,11.166666666666668,16.666666666666668,5.500000000000001,16.666666666666668,0,11.166666666666668,0,5.500000000000001,5.500000000000001,0" fill="#ddd" fill-opacity="0.02" stroke="#000" stroke-opacity="0.02" transform="translate(50,66.66666666666667)"></polyline><polyline points="5.500000000000001,0,11.166666666666668,0,16.666666666666668,5.500000000000001,16.666666666666668,11.166666666666668,11.166666666666668,16.666666666666668,5.500000000000001,16.666666666666668,0,11.166666666666668,0,5.500000000000001,5.500000000000001,0" fill="#222" fill-opacity="0.028666666666666667" stroke="#000" stroke-opacity="0.02" transform="translate(66.66666666666667,66.66666666666667)"></polyline><polyline points="5.500000000000001,0,11.166666666666668,0,16.666666666666668,5.500000000000001,16.666666666666668,11.166666666666668,11.166666666666668,16.666666666666668,5.500000000000001,16.666666666666668,0,11.166666666666668,0,5.500000000000001,5.500000000000001,0" fill="#ddd" fill-opacity="0.07200000000000001" stroke="#000" stroke-opacity="0.02" transform="translate(83.33333333333334,66.66666666666667)"></polyline><polyline points="5.500000000000001,0,11.166666666666668,0,16.666666666666668,5.500000000000001,16.666666666666668,11.166666666666668,11.166666666666668,16.666666666666668,5.500000000000001,16.666666666666668,0,11.166666666666668,0,5.500000000000001,5.500000000000001,0" fill="#ddd" fill-opacity="0.05466666666666667" stroke="#000" stroke-opacity="0.02" transform="translate(0,83.33333333333334)"></polyline><polyline points="5.500000000000001,0,11.166666666666668,0,16.666666666666668,5.500000000000001,16.666666666666668,11.166666666666668,11.166666666666668,16.666666666666668,5.500000000000001,16.666666666666668,0,11.166666666666668,0,5.500000000000001,5.500000000000001,0" fill="#ddd" fill-opacity="0.08933333333333333" stroke="#000" stroke-opacity="0.02" transform="translate(16.666666666666668,83.33333333333334)"></polyline><polyline points="5.500000000000001,0,11.166666666666668,0,16.666666666666668,5.500000000000001,16.666666666666668,11.166666666666668,11.166666666666668,16.666666666666668,5.500000000000001,16.666666666666668,0,11.166666666666668,0,5.500000000000001,5.500000000000001,0" fill="#222" fill-opacity="0.098" stroke="#000" stroke-opacity="0.02" transform="translate(33.333333333333336,83.33333333333334)"></polyline><polyline points="5.500000000000001,0,11.166666666666668,0,16.666666666666668,5.500000000000001,16.666666666666668,11.166666666666668,11.166666666666668,16.666666666666668,5.500000000000001,16.666666666666668,0,11.166666666666668,0,5.500000000000001,5.500000000000001,0" fill="#222" fill-opacity="0.11533333333333334" stroke="#000" stroke-opacity="0.02" transform="translate(50,83.33333333333334)"></polyline><polyline points="5.500000000000001,0,11.166666666666668,0,16.666666666666668,5.500000000000001,16.666666666666668,11.166666666666668,11.166666666666668,16.666666666666668,5.500000000000001,16.666666666666668,0,11.166666666666668,0,5.500000000000001,5.500000000000001,0" fill="#ddd" fill-opacity="0.08933333333333333" stroke="#000" stroke-opacity="0.02" transform="translate(66.66666666666667,83.33333333333334)"></polyline><polyline points="5.500000000000001,0,11.166666666666668,0,16.666666666666668,5.500000000000001,16.666666666666668,11.166666666666668,11.166666666666668,16.666666666666668,5.500000000000001,16.666666666666668,0,11.166666666666668,0,5.500000000000001,5.500000000000001,0" fill="#ddd" fill-opacity="0.03733333333333333" stroke="#000" stroke-opacity="0.02" transform="translate(83.33333333333334,83.33333333333334)"></polyline></svg>