<svg xmlns="http://www.w3.org/2000/svg" width="421" height="421"><rect x="0" y="0" width="100%" height="100%" fill="rgb(69,132,138)"></rect><rect x="0" y="6" width="100%" height="10" opacity="0.06333333333333334" fill="#222"></rect><rect x="0" y="30" width="100%" height="6" opacity="0.028666666666666667" fill="#222"></rect><rect x="0" y="45" width="100%" height="15" opacity="0.10666666666666667" fill="#ddd"></rect><rect x="0" y="70" width="100%" height="5" opacity="0.02" fill="#ddd"></rect><rect x="0" y="82" width="100%" height="18" opacity="0.13266666666666665" fill="#222"></rect><rect x="0" y="108" width="100%" height="7" opacity="0.03733333333333333" fill="#ddd"></rect><rect x="0" y="131" width="100%" height="19" opacity="0.14133333333333334" fill="#ddd"></rect><rect x="0" y="162" width="100%" height="17" opacity="0.12400000000000001" fill="#ddd"></rect><rect x="0" y="194" width="100%" height="14" opacity="0.098" fill="#222"></rect><rect x="0" y="221" width="100%" height="14" opacity="0.098" fill="#222"></rect><rect x="0" y="247" width="100%" height="19" opacity="0.14133333333333334" fill="#ddd"></rect><rect x="0" y="275" width="100%" height="7" opacity="0.03733333333333333" fill="#ddd"></rect><rect x="0" y="291" width="100%" height="13" opacity="0.08933333333333333" fill="#ddd"></rect><rect x="0" y="309" width="100%" height="16" opacity="0.11533333333333334" fill="#222"></rect><rect x="0" y="333" width="100%" height="5" opacity="0.02" fill="#ddd"></rect><rect x="0" y="348" width="100%" height="14" opacity="0.098" fill="#222"></rect><rect x="0" y="375" width="100%" height="13" opacity="0.08933333333333333" fill="#ddd"></rect><rect x="0" y="406" width="100%" height="15" opacity="0.10666666666666667" fill="#ddd"></rect><rect x="6" y="0" width="10" height="100%" opacity="0.06333333333333334" fill="#222"></rect><rect x="30" y="0" width="6" height="100%" opacity="0.028666666666666667" fill="#222"></rect><rect x="45" y="0" width="15" height="100%" opacity="0.10666666666666667" fill="#ddd"></rect><rect x="70" y="0" width="5" height="100%" opacity="0.02" fill="#ddd"></rect><rect x="82" y="0" width="18" height="100%" opacity="0.13266666666666665" fill="#222"></rect><rect x="108" y="0" width="7" height="100%" opacity="0.03733333333333333" fill="#ddd"></rect><rect x="131" y="0" width="19" height="100%" opacity="0.14133333333333334" fill="#ddd"></rect><rect x="162" y="0" width="17" height="100%" opacity="0.12400000000000001" fill="#ddd"></rect><rect x="194" y="0" width="14" height="100%" opacity="0.098" fill="#222"></rect><rect x="221" y="0" width="14" height="100%" opacity="0.098" fill="#222"></rect><rect x="247" y="0" width="19" height="100%" opacity="0.14133333333333334" fill="#ddd"></rect><rect x="275" y="0" width="7" height="100%" opacity="0.03733333333333333" fill="#ddd"></rect><rect x="291" y="0" width="13" height="100%" opacity="0.08933333333333333" fill="#ddd"></rect><rect x="309" y="0" width="16" height="100%" opacity="0.11533333333333334" fill="#222"></rect><rect x="333" y="0" width="5" height="100%" opacity="0.02" fill="#ddd"></rect><rect x="348" y="0" width="14" height="100%" opacity="0.098" fill="#222"></rect><rect x="375" y="0" width="13" height="100%" opacity="0.08933333333333333" fill="#ddd"></rect><rect x="406" y="0" width="15" height="100%" opacity="0.10666666666666667" fill="#ddd"></rect></svg>