<svg xmlns="http://www.w3.org/2000/svg" width="165" height="191"><rect x="0" y="0" width="100%" height="100%" fill="rgb(145,157,50)"></rect><polyline points="0,15.93486742963367,9.2,0,27.599999999999998,0,36.8,15.93486742963367,27.599999999999998,31.86973485926734,9.2,31.86973485926734,0,15.93486742963367" fill="#222" fill-opacity="0.046" stroke="#000" stroke-opacity="0.02" transform="translate(-18.4,-15.93486742963367)"></polyline><polyline points="0,15.93486742963367,9.2,0,27.599999999999998,0,36.8,15.93486742963367,27.599999999999998,31.86973485926734,9.2,31.86973485926734,0,15.93486742963367" fill="#222" fill-opacity="0.046" stroke="#000" stroke-opacity="0.02" transform="translate(147.2,-15.93486742963367)"></polyline><polyline points="0,15.93486742963367,9.2,0,27.599999999999998,0,36.8,15.93486742963367,27.599999999999998,31.86973485926734,9.2,31.86973485926734,0,15.93486742963367" fill="#222" fill-opacity="0.046" stroke="#000" stroke-opacity="0.02" transform="translate(-18.4,175.28354172597037)"></polyline><polyline points="0,15.93486742963367,9.2,0,27.599999999999998,0,36.8,15.93486742963367,27.599999999999998,31.86973485926734,9.2,31.86973485926734,0,15.93486742963367" fill="#222" fill-opacity="0.046" stroke="#000" stroke-opacity="0.02" transform="translate(147.2,175.28354172597037)"></polyline><polyline points="0,15.93486742963367,9.2,0,27.599999999999998,0,36.8,15.93486742963367,27.599999999999998,31.86973485926734,9.2,31.86973485926734,0,15.93486742963367" fill="#ddd" fill-opacity="0.08933333333333333" stroke="#000" stroke-opacity="0.02" transform="translate(9.2,0)"></polyline><polyline points="0,15.93486742963367,9.2,0,27.599999999999998,0,36.8,15.93486742963367,27.599999999999998,31.86973485926734,9.2,31.86973485926734,0,15.93486742963367" fill="#ddd" fill-opacity="0.08933333333333333" stroke="#000" stroke-opacity="0.02" transform="translate(9.2,191.21840915560404)"></polyline><polyline points="0,15.93486742963367,9.2,0,27.599999999999998,0,36.8,15.93486742963367,27.599999999999998,31.86973485926734,9.2,31.86973485926734,0,15.93486742963367" fill="#ddd" fill-opacity="0.03733333333333333" stroke="#000" stroke-opacity="0.02" transform="translate(36.8,-15.93486742963367)"></polyline><polyline points="0,15.93486742963367,9.2,0,27.599999999999998,0,36.8,15.93486742963367,27.599999999999998,31.86973485926734,9.2,31.86973485926734,0,15.93486742963367" fill="#ddd" fill-opacity="0.03733333333333333" stroke="#000" stroke-opacity="0.02" transform="translate(36.8,175.28354172597037)"></polyline><polyline points="0,15.93486742963367,9.2,0,27.599999999999998,0,36.8,15.93486742963367,27.599999999999998,31.86973485926734,9.2,31.86973485926734,0,15.93486742963367" fill="#222" fill-opacity="0.13266666666666665" stroke="#000" stroke-opacity="0.02" transform="translate(64.4,0)"></polyline><polyline points="0,15.93486742963367,9.2,0,27.599999999999998,0,36.8,15.93486742963367,27.599999999999998,31.86973485926734,9.2,31.86973485926734,0,15.93486742963367" fill="#222" fill-opacity="0.13266666666666665" stroke="#000" stroke-opacity="0.02" transform="translate(64.4,191.21840915560404)"></polyline><polyline points="0,15.93486742963367,9.2,0,27.599999999999998,0,36.8,15.93486742963367,27.599999999999998,31.86973485926734,9.2,31.86973485926734,0,15.93486742963367" fill="#ddd" fill-opacity="0.07200000000000001" stroke="#000" stroke-opacity="0.02" transform="translate(92,-15.93486742963367)"></polyline><polyline points="0,15.93486742963367,9.2,0,27.599999999999998,0,36.8,15.93486742963367,27.599999999999998,31.86973485926734,9.2,31.86973485926734,0,15.93486742963367" fill="#ddd" fill-opacity="0.07200000000000001" stroke="#000" stroke-opacity="0.02" transform="translate(92,175.28354172597037)"></polyline><polyline points="0,15.93486742963367,9.2,0,27.599999999999998,0,36.8,15.93486742963367,27.599999999999998,31.86973485926734,9.2,31.86973485926734,0,15.93486742963367" fill="#ddd" fill-opacity="0.12400000000000001" stroke="#000" stroke-opacity="0.02" transform="translate(119.6,0)"></polyline><polyline points="0,15.93486742963367,9.2,0,27.599999999999998,0,36.8,15.93486742963367,27.599999999999998,31.86973485926734,9.2,31.86973485926734,0,15.93486742963367" fill="#ddd" fill-opacity="0.12400000000000001" stroke="#000" stroke-opacity="0.02" transform="translate(119.6,191.21840915560404)"></polyline><polyline points="0,15.93486742963367,9.2,0,27.599999999999998,0,36.8,15.93486742963367,27.599999999999998,31.86973485926734,9.2,31.86973485926734,0,15.93486742963367" fill="#ddd" fill-opacity="0.08933333333333333" stroke="#000" stroke-opacity="0.02" transform="translate(-18.4,15.93486742963367)"></polyline><polyline points="0,15.93486742963367,9.2,0,27.599999999999998,0,36.8,15.93486742963367,27.599999999999998,31.86973485926734,9.2,31.86973485926734,0,15.93486742963367" fill="#ddd" fill-opacity="0.08933333333333333" stroke="#000" stroke-opacity="0.02" transform="translate(147.2,15.93486742963367)"></polyline><polyline points="0,15.93486742963367,9.2,0,27.599999999999998,0,36.8,15.93486742963367,27.599999999999998,31.86973485926734,9.2,31.86973485926734,0,15.93486742963367" fill="#ddd" fill-opacity="0.02" stroke="#000" stroke-opacity="0.02" transform="translate(9.2,31.86973485926734)"></polyline><polyline points="0,15.93486742963367,9.2,0,27.599999999999998,0,36.8,15.93486742963367,27.599999999999998,31.86973485926734,9.2,31.86973485926734,0,15.93486742963367" fill="#222" fill-opacity="0.15" stroke="#000" stroke-opacity="0.02" transform="translate(36.8,15.93486742963367)"></polyline><polyline points="0,15.93486742963367,9.2,0,27.599999999999998,0,36.8,15.93486742963367,27.599999999999998,31.86973485926734,9.2,31.86973485926734,0,15.93486742963367" fill="#222" fill-opacity="0.098" stroke="#000" stroke-opacity="0.02" transform="translate(64.4,31.86973485926734)"></polyline><polyline points="0,15.93486742963367,9.2,0,27.599999999999998,0,36.8,15.93486742963367,27.599999999999998,31.86973485926734,9.2,31.86973485926734,0,15.93486742963367" fill="#222" fill-opacity="0.046" stroke="#000" stroke-opacity="0.02" transform="translate(92,15.93486742963367)"></polyline><polyline points="0,15.93486742963367,9.2,0,27.599999999999998,0,36.8,15.93486742963367,27.599999999999998,31.86973485926734,9.2,31.86973485926734,0,15.93486742963367" fill="#222" fill-opacity="0.15" stroke="#000" stroke-opacity="0.02" transform="translate(119.6,31.86973485926734)"></polyline><polyline points="0,15.93486742963367,9.2,0,27.599999999999998,0,36.8,15.93486742963367,27.599999999999998,31.86973485926734,9.2,31.86973485926734,0,15.93486742963367" fill="#ddd" fill-opacity="0.05466666666666667" stroke="#000" stroke-opacity="0.02" transform="translate(-18.4,47.80460228890101)"></polyline><polyline points="0,15.93486742963367,9.2,0,27.599999999999998,0,36.8,15.93486742963367,27.599999999999998,31.86973485926734,9.2,31.86973485926734,0,15.93486742963367" fill="#ddd" fill-opacity="0.05466666666666667" stroke="#000" stroke-opacity="0.02" transform="translate(147.2,47.80460228890101)"></polyline><polyline points="0,15.93486742963367,9.2,0,27.599999999999998,0,36.8,15.93486742963367,27.599999999999998,31.86973485926734,9.2,31.86973485926734,0,15.93486742963367" fill="#ddd" fill-opacity="0.07200000000000001" stroke="#000" stroke-opacity="0.02" transform="translate(9.2,63.73946971853468)"></polyline><polyline points="0,15.93486742963367,9.2,0,27.599999999999998,0,36.8,15.93486742963367,27.599999999999998,31.86973485926734,9.2,31.86973485926734,0,15.93486742963367" fill="#222" fill-opacity="0.13266666666666665" stroke="#000" stroke-opacity="0.02" transform="translate(36.8,47.80460228890101)"></polyline><polyline points="0,15.93486742963367,9.2,0,27.599999999999998,0,36.8,15.93486742963367,27.599999999999998,31.86973485926734,9.2,31.86973485926734,0,15.93486742963367" fill="#ddd" fill-opacity="0.02" stroke="#000" stroke-opacity="0.02" transform="translate(64.4,63.73946971853468)"></polyline><polyline points="0,15.93486742963367,9.2,0,27.599999999999998,0,36.8,15.93486742963367,27.599999999999998,31.86973485926734,9.2,31.86973485926734,0,15.93486742963367" fill="#ddd" fill-opacity="0.14133333333333334" stroke="#000" stroke-opacity="0.02" transform="translate(92,47.80460228890101)"></polyline><polyline points="0,15.93486742963367,9.2,0,27.599999999999998,0,36.8,15.93486742963367,27.599999999999998,31.86973485926734,9.2,31.86973485926734,0,15.93486742963367" fill="#ddd" fill-opacity="0.10666666666666667" stroke="#000" stroke-opacity="0.02" transform="translate(119.6,63.73946971853468)"></polyline><polyline points="0,15.93486742963367,9.2,0,27.599999999999998,0,36.8,15.93486742963367,27.599999999999998,31.86973485926734,9.2,31.86973485926734,0,15.93486742963367" fill="#ddd" fill-opacity="0.08933333333333333" stroke="#000" stroke-opacity="0.02" transform="translate(-18.4,79.67433714816835)"></polyline><polyline points="0,15.93486742963367,9.2,0,27.599999999999998,0,36.8,15.93486742963367,27.599999999999998,31.86973485926734,9.2,31.86973485926734,0,15.93486742963367" fill="#ddd" fill-opacity="0.08933333333333333" stroke="#000" stroke-opacity="0.02" transform="translate(147.2,79.67433714816835)"></polyline><polyline points="0,15.93486742963367,9.2,0,27.599999999999998,0,36.8,15.93486742963367,27.599999999999998,31.86973485926734,9.2,31.86973485926734,0,15.93486742963367" fill="#222" fill-opacity="0.11533333333333334" stroke="#000" stroke-opacity="0.02" transform="translate(9.2,95.60920457780202)"></polyline><polyline points="0,15.93486742963367,9.2,0,27.599999999999998,0,36.8,15.93486742963367,27.599999999999998,31.86973485926734,9.2,31.86973485926734,0,15.93486742963367" fill="#222" fill-opacity="0.06333333333333334" stroke="#000" stroke-opacity="0.02" transform="translate(36.8,79.67433714816835)"></polyline><polyline points="0,15.93486742963367,9.2,0,27.599999999999998,0,36.8,15.93486742963367,27.599999999999998,31.86973485926734,9.2,31.86973485926734,0,15.93486742963367" fill="#ddd" fill-opacity="0.12400000000000001" stroke="#000" stroke-opacity="0.02" transform="translate(64.4,95.60920457780202)"></polyline><polyline points="0,15.93486742963367,9.2,0,27.599999999999998,0,36.8,15.93486742963367,27.599999999999998,31.86973485926734,9.2,31.86973485926734,0,15.93486742963367" fill="#222" fill-opacity="0.028666666666666667" stroke="#000" stroke-opacity="0.02" transform="translate(92,79.67433714816835)"></polyline><polyline points="0,15.93486742963367,9.2,0,27.599999999999998,0,36.8,15.93486742963367,27.599999999999998,31.86973485926734,9.2,31.86973485926734,0,15.93486742963367" fill="#222" fill-opacity="0.06333333333333334" stroke="#000" stroke-opacity="0.02" transform="translate(119.6,95.60920457780202)"></polyline><polyline points="0,15.93486742963367,9.2,0,27.599999999999998,0,36.8,15.93486742963367,27.599999999999998,31.86973485926734,9.2,31.86973485926734,0,15.93486742963367" fill="#222" fill-opacity="0.046" stroke="#000" stroke-opacity="0.02" transform="translate(-18.4,111.54407200743569)"></polyline><polyline points="0,15.93486742963367,9.2,0,27.599999999999998,0,36.8,15.93486742963367,27.599999999999998,31.86973485926734,9.2,31.86973485926734,0,15.93486742963367" fill="#222" fill-opacity="0.046" stroke="#000" stroke-opacity="0.02" transform="translate(147.2,111.54407200743569)"></polyline><polyline points="0,15.93486742963367,9.2,0,27.599999999999998,0,36.8,15.93486742963367,27.599999999999998,31.86973485926734,9.2,31.86973485926734,0,15.93486742963367" fill="#ddd" fill-opacity="0.10666666666666667" stroke="#000" stroke-opacity="0.02" transform="translate(9.2,127.47893943706936)"></polyline><polyline points="0,15.93486742963367,9.2,0,27.599999999999998,0,36.8,15.93486742963367,27.599999999999998,31.86973485926734,9.2,31.86973485926734,0,15.93486742963367" fill="#ddd" fill-opacity="0.14133333333333334" stroke="#000" stroke-opacity="0.02" transform="translate(36.8,111.54407200743569)"></polyline><polyline points="0,15.93486742963367,9.2,0,27.599999999999998,0,36.8,15.93486742963367,27.599999999999998,31.86973485926734,9.2,31.86973485926734,0,15.93486742963367" fill="#ddd" fill-opacity="0.14133333333333334" stroke="#000" stroke-opacity="0.02" transform="translate(64.4,127.47893943706936)"></polyline><polyline points="0,15.93486742963367,9.2,0,27.599999999999998,0,36.8,15.93486742963367,27.599999999999998,31.86973485926734,9.2,31.86973485926734,0,15.93486742963367" fill="#222" fill-opacity="0.13266666666666665" stroke="#000" stroke-opacity="0.02" transform="translate(92,111.54407200743569)"></polyline><polyline points="0,15.93486742963367,9.2,0,27.599999999999998,0,36.8,15.93486742963367,27.599999999999998,31.86973485926734,9.2,31.86973485926734,0,15.93486742963367" fill="#ddd" fill-opacity="0.07200000000000001" stroke="#000" stroke-opacity="0.02" transform="translate(119.6,127.47893943706936)"></polyline><polyline points="0,15.93486742963367,9.2,0,27.599999999999998,0,36.8,15.93486742963367,27.599999999999998,31.86973485926734,9.2,31.86973485926734,0,15.93486742963367" fill="#ddd" fill-opacity="0.08933333333333333" stroke="#000" stroke-opacity="0.02" transform="translate(-18.4,143.41380686670303)"></polyline><polyline points="0,15.93486742963367,9.2,0,27.599999999999998,0,36.8,15.93486742963367,27.599999999999998,31.86973485926734,9.2,31.86973485926734,0,15.93486742963367" fill="#ddd" fill-opacity="0.08933333333333333" stroke="#000" stroke-opacity="0.02" transform="translate(147.2,143.41380686670303)"></polyline><polyline points="0,15.93486742963367,9.2,0,27.599999999999998,0,36.8,15.93486742963367,27.599999999999998,31.86973485926734,9.2,31.86973485926734,0,15.93486742963367" fill="#222" fill-opacity="0.11533333333333334" stroke="#000" stroke-opacity="0.02" transform="translate(9.2,159.3486742963367)"></polyline><polyline points="0,15.93486742963367,9.2,0,27.599999999999998,0,36.8,15.93486742963367,27.599999999999998,31.86973485926734,9.2,31.86973485926734,0,15.93486742963367" fill="#ddd" fill-opacity="0.03733333333333333" stroke="#000" stroke-opacity="0.02" transform="translate(36.8,143.41380686670303)"></polyline><polyline points="0,15.93486742963367,9.2,0,27.599999999999998,0,36.8,15.93486742963367,27.599999999999998,31.86973485926734,9.2,31.86973485926734,0,15.93486742963367" fill="#222" fill-opacity="0.11533333333333334" stroke="#000" stroke-opacity="0.02" transform="translate(64.4,159.3486742963367)"></polyline><polyline points="0,15.93486742963367,9.2,0,27.599999999999998,0,36.8,15.93486742963367,27.599999999999998,31.86973485926734,9.2,31.86973485926734,0,15.93486742963367" fill="#ddd" fill-opacity="0.02" stroke="#000" stroke-opacity="0.02" transform="translate(92,143.41380686670303)"></polyline><polyline points="0,15.93486742963367,9.2,0,27.599999999999998,0,36.8,15.93486742963367,27.599999999999998,31.86973485926734,9.2,31.86973485926734,0,15.93486742963367" fill="#ddd" fill-opacity="0.08933333333333333" stroke="#000" stroke-opacity="0.02" transform="translate(119.6,159.3486742963367)"></polyline></svg>