<svg xmlns="http://www.w3.org/2000/svg" width="415" height="415"><rect x="0" y="0" width="100%" height="100%" fill="rgb(142,137,65)"></rect><rect x="0" y="17" width="100%" height="5" opacity="0.02" fill="#ddd"></rect><rect x="0" y="39" width="100%" height="6" opacity="0.028666666666666667" fill="#222"></rect><rect x="0" y="52" width="100%" height="13" opacity="0.08933333333333333" fill="#ddd"></rect><rect x="0" y="83" width="100%" height="6" opacity="0.028666666666666667" fill="#222"></rect><rect x="0" y="104" width="100%" height="19" opacity="0.14133333333333334" fill="#ddd"></rect><rect x="0" y="136" width="100%" height="17" opacity="0.12400000000000001" fill="#ddd"></rect><rect x="0" y="167" width="100%" height="10" opacity="0.06333333333333334" fill="#222"></rect><rect x="0" y="195" width="100%" height="13" opacity="0.08933333333333333" fill="#ddd"></rect><rect x="0" y="219" width="100%" height="10" opacity="0.06333333333333334" fill="#222"></rect><rect x="0" y="237" width="100%" height="12" opacity="0.08066666666666666" fill="#222"></rect><rect x="0" y="261" width="100%" height="5" opacity="0.02" fill="#ddd"></rect><rect x="0" y="272" width="100%" height="8" opacity="0.046" fill="#222"></rect><rect x="0" y="295" width="100%" height="17" opacity="0.12400000000000001" fill="#ddd"></rect><rect x="0" y="318" width="100%" height="6" opacity="0.028666666666666667" fill="#222"></rect><rect x="0" y="332" width="100%" height="13" opacity="0.08933333333333333" fill="#ddd"></rect><rect x="0" y="354" width="100%" height="11" opacity="0.07200000000000001" fill="#ddd"></rect><rect x="0" y="375" width="100%" height="19" opacity="0.14133333333333334" fill="#ddd"></rect><rect x="0" y="409" width="100%" height="6" opacity="0.028666666666666667" fill="#222"></rect><rect x="17" y="0" width="5" height="100%" opacity="0.02" fill="#ddd"></rect><rect x="39" y="0" width="6" height="100%" opacity="0.028666666666666667" fill="#222"></rect><rect x="52" y="0" width="13" height="100%" opacity="0.08933333333333333" fill="#ddd"></rect><rect x="83" y="0" width="6" height="100%" opacity="0.028666666666666667" fill="#222"></rect><rect x="104" y="0" width="19" height="100%" opacity="0.14133333333333334" fill="#ddd"></rect><rect x="136" y="0" width="17" height="100%" opacity="0.12400000000000001" fill="#ddd"></rect><rect x="167" y="0" width="10" height="100%" opacity="0.06333333333333334" fill="#222"></rect><rect x="195" y="0" width="13" height="100%" opacity="0.08933333333333333" fill="#ddd"></rect><rect x="219" y="0" width="10" height="100%" opacity="0.06333333333333334" fill="#222"></rect><rect x="237" y="0" width="12" height="100%" opacity="0.08066666666666666" fill="#222"></rect><rect x="261" y="0" width="5" height="100%" opacity="0.02" fill="#ddd"></rect><rect x="272" y="0" width="8" height="100%" opacity="0.046" fill="#222"></rect><rect x="295" y="0" width="17" height="100%" opacity="0.12400000000000001" fill="#ddd"></rect><rect x="318" y="0" width="6" height="100%" opacity="0.028666666666666667" fill="#222"></rect><rect x="332" y="0" width="13" height="100%" opacity="0.08933333333333333" fill="#ddd"></rect><rect x="354" y="0" width="11" height="100%" opacity="0.07200000000000001" fill="#ddd"></rect><rect x="375" y="0" width="19" height="100%" opacity="0.14133333333333334" fill="#ddd"></rect><rect x="409" y="0" width="6" height="100%" opacity="0.028666666666666667" fill="#222"></rect></svg>